<?xml version="1.0" standalone="no"?>
<!DOCTYPE svg PUBLIC "-//W3C//DTD SVG 20010904//EN"
 "http://www.w3.org/TR/2001/REC-SVG-20010904/DTD/svg10.dtd">
<svg version="1.0" xmlns="http://www.w3.org/2000/svg"
 width="300.000000pt" height="61.000000pt" viewBox="0 0 300.000000 61.000000"
 preserveAspectRatio="xMidYMid meet">
<metadata>
Created by potrace 1.10, written by Peter Selinger 2001-2011
</metadata>
<g transform="translate(0.000000,61.000000) scale(0.100000,-0.100000)"
fill="#000000" stroke="none">
<path d="M156 555 c-74 -26 -129 -99 -151 -200 -6 -29 -6 -29 13 -12 20 18 20
18 20 -15 0 -18 1 -37 2 -43 1 -5 2 -18 1 -28 -1 -17 -2 -17 -17 -3 -22 22
-22 21 -14 -23 31 -173 235 -240 365 -120 56 51 86 123 87 203 0 83 -17 139
-55 183 -59 67 -160 91 -251 58z m152 -55 c63 -38 94 -158 72 -273 -6 -36 -21
-76 -34 -92 -20 -25 -31 -29 -87 -33 -55 -3 -69 0 -98 20 -19 13 -43 37 -53
55 -55 94 -33 306 35 333 42 17 130 11 165 -10z"/>
<path d="M625 563 l-30 -4 0 -249 0 -250 30 0 31 0 -7 72 c-12 112 -11 338 1
338 6 0 10 -4 10 -8 0 -5 56 -96 125 -203 69 -106 126 -198 128 -202 1 -5 16
-7 32 -3 l30 6 0 250 0 250 -34 0 c-28 0 -32 -3 -26 -17 13 -31 25 -423 14
-423 -14 0 -21 21 -11 33 7 8 -3 32 -32 78 -172 277 -212 338 -221 337 -5 -1
-23 -3 -40 -5z"/>
<path d="M1676 555 c-91 -32 -156 -135 -156 -246 0 -82 21 -143 63 -188 150
-158 397 -38 397 193 0 86 -14 134 -53 182 -56 68 -159 92 -251 59z m150 -54
c52 -32 74 -92 74 -202 -1 -153 -32 -199 -136 -199 -89 0 -148 57 -165 159
-17 106 15 231 64 251 41 16 130 11 163 -9z"/>
<path d="M2145 563 l-30 -4 0 -249 0 -250 31 0 30 0 -7 53 c-11 74 -11 357 0
357 5 0 12 -8 16 -17 4 -13 231 -374 251 -401 1 -2 15 -1 31 2 l28 6 0 250 0
250 -34 0 c-28 0 -32 -3 -26 -17 11 -26 19 -363 9 -363 -5 1 -33 40 -63 88
-29 48 -83 135 -120 194 -36 59 -70 107 -76 106 -5 -1 -23 -3 -40 -5z"/>
<path d="M2814 562 l-141 -3 8 -47 c10 -60 10 -330 0 -399 l-7 -53 152 0 152
0 5 28 c7 35 4 37 -34 23 -18 -6 -67 -11 -110 -11 l-79 0 0 100 0 100 75 0
c63 0 76 3 85 19 5 11 10 21 10 23 0 2 -38 1 -85 -1 l-85 -3 0 92 0 92 95 -4
c92 -3 94 -2 100 21 3 13 5 24 3 25 -2 0 -66 0 -144 -2z"/>
<path d="M1110 541 c0 -11 -3 -26 -6 -34 -4 -12 2 -13 48 -1 29 8 87 14 129
14 l77 0 -56 -83 c-50 -73 -59 -82 -83 -79 -18 3 -28 -1 -33 -14 -3 -9 -5 -18
-4 -20 2 -1 25 2 52 7 28 5 57 7 65 4 11 -3 34 24 78 91 88 134 88 134 -112
134 -146 0 -155 -1 -155 -19z"/>
<path d="M1265 293 l-60 -4 -63 -95 c-90 -137 -93 -134 123 -134 l173 0 5 27
c3 16 4 29 2 31 -1 1 -22 -2 -46 -7 -24 -6 -88 -11 -141 -11 l-97 0 57 85 c52
78 60 85 87 83 21 -2 30 2 33 15 2 9 0 16 -5 15 -4 -1 -35 -3 -68 -5z"/>
</g>
</svg>
